<mxfile host="app.diagrams.net" modified="2020-10-14T07:52:47.862Z" agent="5.0 (Macintosh; Intel Mac OS X 10_15_4) AppleWebKit/605.1.15 (KHTML, like Gecko) Version/13.1.2 Safari/605.1.15" etag="G-iBgPjttKI3H3TPXwZ9" version="13.7.9" type="github">
  <diagram id="4aDPoYBwtV_hieTDLoHm" name="Page-1">
    <mxGraphModel dx="1157" dy="989" grid="1" gridSize="10" guides="1" tooltips="1" connect="1" arrows="1" fold="1" page="1" pageScale="1" pageWidth="827" pageHeight="1169" math="0" shadow="0">
      <root>
        <mxCell id="0" />
        <mxCell id="1" parent="0" />
        <mxCell id="XU8jBczttGZIVeFaOY-y-1" value="" style="rounded=0;whiteSpace=wrap;html=1;" vertex="1" parent="1">
          <mxGeometry x="90" y="102.5" width="360" height="130" as="geometry" />
        </mxCell>
        <mxCell id="XU8jBczttGZIVeFaOY-y-2" value="&lt;font style=&quot;font-size: 24px&quot;&gt;NextPC Stage&lt;/font&gt;" style="text;html=1;strokeColor=none;fillColor=none;align=center;verticalAlign=middle;whiteSpace=wrap;rounded=0;" vertex="1" parent="1">
          <mxGeometry x="130" y="100" width="210" height="30" as="geometry" />
        </mxCell>
        <mxCell id="XU8jBczttGZIVeFaOY-y-3" value="" style="rounded=1;whiteSpace=wrap;html=1;arcSize=25;" vertex="1" parent="1">
          <mxGeometry x="100" y="150" width="60" height="50" as="geometry" />
        </mxCell>
        <mxCell id="XU8jBczttGZIVeFaOY-y-4" value="&lt;font style=&quot;font-size: 24px&quot;&gt;pc&lt;/font&gt;" style="text;html=1;strokeColor=none;fillColor=none;align=center;verticalAlign=middle;whiteSpace=wrap;rounded=0;" vertex="1" parent="1">
          <mxGeometry x="110" y="150" width="40" height="45" as="geometry" />
        </mxCell>
        <mxCell id="XU8jBczttGZIVeFaOY-y-6" value="" style="rounded=1;whiteSpace=wrap;html=1;" vertex="1" parent="1">
          <mxGeometry x="175" y="155" width="95" height="45" as="geometry" />
        </mxCell>
        <mxCell id="XU8jBczttGZIVeFaOY-y-7" value="BTB" style="text;html=1;strokeColor=none;fillColor=none;align=center;verticalAlign=middle;whiteSpace=wrap;rounded=0;" vertex="1" parent="1">
          <mxGeometry x="192.5" y="167.5" width="60" height="10" as="geometry" />
        </mxCell>
        <object label="" id="XU8jBczttGZIVeFaOY-y-8">
          <mxCell style="rounded=1;whiteSpace=wrap;html=1;" vertex="1" parent="1">
            <mxGeometry x="300" y="140" width="140" height="70" as="geometry" />
          </mxCell>
        </object>
        <mxCell id="XU8jBczttGZIVeFaOY-y-9" value="BranchPRedictor&lt;br&gt;" style="text;html=1;strokeColor=none;fillColor=none;align=center;verticalAlign=middle;whiteSpace=wrap;rounded=0;" vertex="1" parent="1">
          <mxGeometry x="350" y="165" width="40" height="20" as="geometry" />
        </mxCell>
      </root>
    </mxGraphModel>
  </diagram>
</mxfile>
